<svg width="28" height="34" fill="none" xmlns="http://www.w3.org/2000/svg"><path d="M7.232 24.334h1.076c.298 0 .529-.105.692-.315.163-.21.245-.515.245-.916 0-.416-.083-.746-.25-.99-.167-.248-.39-.374-.671-.378H7.232v2.599zm6.209-2.599v5.535h.469c.521 0 .889-.147 1.102-.44.213-.298.325-.81.335-1.534v-1.449c0-.778-.1-1.32-.303-1.625-.203-.31-.547-.471-1.033-.487h-.57z" fill="#CC2B24"/><path fill-rule="evenodd" clip-rule="evenodd" d="M27.228 11.467l-.015-.047a1.429 1.429 0 00-.04-.11 1.661 1.661 0 00-.326-.488l-10-10a1.66 1.66 0 00-.489-.327.86.86 0 00-.107-.039 1.652 1.652 0 00-.481-.101.24.24 0 01-.048-.011c-.018-.005-.036-.01-.055-.01H4A3.337 3.337 0 00.667 3.666v26.666A3.337 3.337 0 004 33.667h20a3.337 3.337 0 003.333-3.334V12a.19.19 0 00-.01-.055c-.005-.016-.01-.031-.011-.048a1.648 1.648 0 00-.084-.43zm-11.561-7.8V12H24l-8.333-8.333zm-8.435 22.07v2.93H5.667v-8.334h2.64c.768 0 1.378.256 1.833.767.457.511.686 1.175.686 1.992s-.225 1.461-.676 1.934c-.45.474-1.075.71-1.874.71H7.232zm4.644 2.93v-8.334h2.05c.905 0 1.625.31 2.161.928.54.618.815 1.465.826 2.54v1.351c0 1.095-.27 1.956-.81 2.582-.536.622-1.276.933-2.22.933h-2.007zm7.731-3.4h2.434V23.87h-2.434v-2.135h2.726v-1.402h-4.291v8.334h1.565v-3.4z" fill="#CC2B24"/></svg>